REM DIRINDEX 1\2,1\3\7,1\3\8,1\4\9,1\4\10,1\4\11,1\5\12,1\5\13,1\5\14,1\6\15,1\6\16,1\6\17
REM DIRNAME "folder01","folder02","folder03","folder04","folder05","folder06","folder07","folder08","folder09","folder10","folder11","folder12","folder13","folder14","folder15","folder16","folder17"
TITLE ""
FILE "2Q_j_1542-1555.mp3" MP3
  TRACK 01 AUDIO
    TITLE "9:cjc174_0845"
    INDEX 01 00:00:00
  TRACK 02 AUDIO
    TITLE "0:"
    INDEX 01 00:01:35
  TRACK 03 AUDIO
    TITLE "10:cjc174_0846"
    INDEX 01 00:02:09
  TRACK 04 AUDIO
    TITLE "0:"
    INDEX 01 00:03:52
  TRACK 05 AUDIO
    TITLE "11:cjc174_0847"
    INDEX 01 00:04:22
  TRACK 06 AUDIO
    TITLE "0:"
    INDEX 01 00:07:44
  TRACK 07 AUDIO
    TITLE "9:cjc174_0848"
    INDEX 01 00:08:16
  TRACK 08 AUDIO
    TITLE "0:"
    INDEX 01 00:09:58
  TRACK 09 AUDIO
    TITLE "10:cjc174_0849"
    INDEX 01 00:10:28
  TRACK 10 AUDIO
    TITLE "0:"
    INDEX 01 00:13:36
  TRACK 11 AUDIO
    TITLE "11:cjc174_0850"
    INDEX 01 00:14:08
  TRACK 12 AUDIO
    TITLE "0:"
    INDEX 01 00:16:62
  TRACK 13 AUDIO
    TITLE "9:cjc174_0851"
    INDEX 01 00:17:34
  TRACK 14 AUDIO
    TITLE "0:"
    INDEX 01 00:18:53
  TRACK 15 AUDIO
    TITLE "10:cjc174_0852"
    INDEX 01 00:19:31
  TRACK 16 AUDIO
    TITLE "0:"
    INDEX 01 00:21:14
  TRACK 17 AUDIO
    TITLE "11:cjc174_0853"
    INDEX 01 00:21:58
  TRACK 18 AUDIO
    TITLE "0:"
    INDEX 01 00:26:16
  TRACK 19 AUDIO
    TITLE "9:cjc174_0854"
    INDEX 01 00:26:61
  TRACK 20 AUDIO
    TITLE "0:"
    INDEX 01 00:28:07
  TRACK 21 AUDIO
    TITLE "10:cjc174_0855"
    INDEX 01 00:28:54
  TRACK 22 AUDIO
    TITLE "0:"
    INDEX 01 00:30:06
  TRACK 23 AUDIO
    TITLE "11:cjc174_0856"
    INDEX 01 00:30:51
  TRACK 24 AUDIO
    TITLE "0:"
    INDEX 01 00:34:56
  TRACK 25 AUDIO
    TITLE "9:cjc174_0857"
    INDEX 01 00:35:26
  TRACK 26 AUDIO
    TITLE "0:"
    INDEX 01 00:36:49
  TRACK 27 AUDIO
    TITLE "10:cjc174_0858"
    INDEX 01 00:37:29
  TRACK 28 AUDIO
    TITLE "0:"
    INDEX 01 00:39:38
  TRACK 29 AUDIO
    TITLE "11:cjc174_0859"
    INDEX 01 00:40:10
  TRACK 30 AUDIO
    TITLE "0:"
    INDEX 01 00:43:00
  TRACK 31 AUDIO
    TITLE "9:cjc174_0860"
    INDEX 01 00:43:53
  TRACK 32 AUDIO
    TITLE "0:"
    INDEX 01 00:45:11
  TRACK 33 AUDIO
    TITLE "10:cjc174_0861"
    INDEX 01 00:45:58
  TRACK 34 AUDIO
    TITLE "0:"
    INDEX 01 00:49:15
  TRACK 35 AUDIO
    TITLE "11:cjc174_0862"
    INDEX 01 00:49:62
  TRACK 36 AUDIO
    TITLE "0:"
    INDEX 01 00:53:69
  TRACK 37 AUDIO
    TITLE "9:cjc174_0863"
    INDEX 01 00:54:41
  TRACK 38 AUDIO
    TITLE "0:"
    INDEX 01 00:55:58
  TRACK 39 AUDIO
    TITLE "10:cjc174_0864"
    INDEX 01 00:56:30
  TRACK 40 AUDIO
    TITLE "0:"
    INDEX 01 00:57:67
  TRACK 41 AUDIO
    TITLE "11:cjc174_0865"
    INDEX 01 00:58:37
  TRACK 42 AUDIO
    TITLE "0:"
    INDEX 01 01:00:69
  TRACK 43 AUDIO
    TITLE "9:cjc174_0866"
    INDEX 01 01:01:39
  TRACK 44 AUDIO
    TITLE "0:"
    INDEX 01 01:03:50
  TRACK 45 AUDIO
    TITLE "10:cjc174_0867"
    INDEX 01 01:04:24
  TRACK 46 AUDIO
    TITLE "0:"
    INDEX 01 01:06:17
  TRACK 47 AUDIO
    TITLE "11:cjc174_0868"
    INDEX 01 01:06:64
  TRACK 48 AUDIO
    TITLE "0:"
    INDEX 01 01:12:08
  TRACK 49 AUDIO
    TITLE "9:cjc174_0869"
    INDEX 01 01:12:55
  TRACK 50 AUDIO
    TITLE "0:"
    INDEX 01 01:13:64
  TRACK 51 AUDIO
    TITLE "10:cjc174_0870"
    INDEX 01 01:14:36
  TRACK 52 AUDIO
    TITLE "0:"
    INDEX 01 01:16:27
  TRACK 53 AUDIO
    TITLE "11:cjc174_0871"
    INDEX 01 01:16:72
  TRACK 54 AUDIO
    TITLE "0:"
    INDEX 01 01:21:54
  TRACK 55 AUDIO
    TITLE "9:cjc174_0872"
    INDEX 01 01:22:24
  TRACK 56 AUDIO
    TITLE "0:"
    INDEX 01 01:23:35
  TRACK 57 AUDIO
    TITLE "10:cjc174_0873"
    INDEX 01 01:24:05
  TRACK 58 AUDIO
    TITLE "0:"
    INDEX 01 01:26:06
  TRACK 59 AUDIO
    TITLE "11:cjc174_0874"
    INDEX 01 01:26:49
  TRACK 60 AUDIO
    TITLE "0:"
    INDEX 01 01:31:56
  TRACK 61 AUDIO
    TITLE "9:cjc174_0875"
    INDEX 01 01:32:34
  TRACK 62 AUDIO
    TITLE "0:"
    INDEX 01 01:34:17
  TRACK 63 AUDIO
    TITLE "10:cjc174_0876"
    INDEX 01 01:34:70
  TRACK 64 AUDIO
    TITLE "0:"
    INDEX 01 01:37:12
  TRACK 65 AUDIO
    TITLE "11:cjc174_0877"
    INDEX 01 01:37:57
  TRACK 66 AUDIO
    TITLE "0:"
    INDEX 01 01:41:51
  TRACK 67 AUDIO
    TITLE "9:cjc174_0878"
    INDEX 01 01:42:23
  TRACK 68 AUDIO
    TITLE "0:"
    INDEX 01 01:43:38
  TRACK 69 AUDIO
    TITLE "10:cjc174_0879"
    INDEX 01 01:44:10
  TRACK 70 AUDIO
    TITLE "0:"
    INDEX 01 01:46:03
  TRACK 71 AUDIO
    TITLE "11:cjc174_0880"
    INDEX 01 01:46:48
  TRACK 72 AUDIO
    TITLE "0:"
    INDEX 01 01:52:35
  TRACK 73 AUDIO
    TITLE "9:cjc174_0881"
    INDEX 01 01:53:19
  TRACK 74 AUDIO
    TITLE "0:"
    INDEX 01 01:54:65
  TRACK 75 AUDIO
    TITLE "10:cjc174_0882"
    INDEX 01 01:55:33
  TRACK 76 AUDIO
    TITLE "0:"
    INDEX 01 01:58:24
  TRACK 77 AUDIO
    TITLE "11:cjc174_0883"
    INDEX 01 01:58:69
  TRACK 78 AUDIO
    TITLE "0:"
    INDEX 01 02:01:38
  TRACK 79 AUDIO
    TITLE "9:cjc174_0884"
    INDEX 01 02:02:16
  TRACK 80 AUDIO
    TITLE "0:"
    INDEX 01 02:03:35
  TRACK 81 AUDIO
    TITLE "10:cjc174_0885"
    INDEX 01 02:04:05
  TRACK 82 AUDIO
    TITLE "0:"
    INDEX 01 02:08:28
  TRACK 83 AUDIO
    TITLE "11:cjc174_0886"
    INDEX 01 02:08:73
  TRACK 84 AUDIO
    TITLE "0:"
    INDEX 01 02:12:37
